<mxfile host="app.diagrams.net" modified="2023-10-24T21:02:09.184Z" agent="Mozilla/5.0 (Macintosh; Intel Mac OS X 10_15_7) AppleWebKit/537.36 (KHTML, like Gecko) Chrome/117.0.0.0 Safari/537.36" etag="D-vez0c4NGES6LRJOGPx" version="22.0.7" type="github">
  <diagram name="Страница — 1" id="8X-WhG5XDs7vwy_0SSlD">
    <mxGraphModel dx="867" dy="442" grid="1" gridSize="10" guides="1" tooltips="1" connect="1" arrows="1" fold="1" page="1" pageScale="1" pageWidth="827" pageHeight="1169" math="0" shadow="0">
      <root>
        <mxCell id="0" />
        <mxCell id="1" parent="0" />
        <mxCell id="k0iRf-nJDOvyUt2F7IKW-1" value="InstallationMonitor" style="swimlane;" vertex="1" parent="1">
          <mxGeometry x="150" y="90" width="200" height="200" as="geometry">
            <mxRectangle x="150" y="90" width="100" height="30" as="alternateBounds" />
          </mxGeometry>
        </mxCell>
        <mxCell id="k0iRf-nJDOvyUt2F7IKW-7" value="-accessGranted&lt;br&gt;-&lt;span class=&quot;Apple-converted-space&quot;&gt;&amp;nbsp;&lt;/span&gt;monitoringInterval&lt;br&gt;-&amp;nbsp;errorOccurred&lt;br&gt;...&lt;br&gt;&lt;br&gt;+grantAccessToMonitoring()&amp;nbsp;&lt;br&gt;+configureMonitoringParameters()&lt;br&gt;+displayInstallationStatus()&lt;br&gt;+generateReport()&lt;br&gt;+analyzeData()&lt;br&gt;+notifyError()" style="text;html=1;strokeColor=none;fillColor=none;align=left;verticalAlign=top;whiteSpace=wrap;rounded=0;" vertex="1" parent="k0iRf-nJDOvyUt2F7IKW-1">
          <mxGeometry y="20" width="200" height="180" as="geometry" />
        </mxCell>
        <mxCell id="k0iRf-nJDOvyUt2F7IKW-5" value="" style="endArrow=none;html=1;rounded=0;exitX=-0.015;exitY=0.389;exitDx=0;exitDy=0;exitPerimeter=0;" edge="1" parent="k0iRf-nJDOvyUt2F7IKW-1" source="k0iRf-nJDOvyUt2F7IKW-7">
          <mxGeometry width="50" height="50" relative="1" as="geometry">
            <mxPoint x="240" y="190" as="sourcePoint" />
            <mxPoint x="200" y="90" as="targetPoint" />
          </mxGeometry>
        </mxCell>
        <mxCell id="k0iRf-nJDOvyUt2F7IKW-2" value="GUI&#xa;" style="swimlane;" vertex="1" parent="1">
          <mxGeometry x="490" y="90" width="200" height="200" as="geometry" />
        </mxCell>
        <mxCell id="k0iRf-nJDOvyUt2F7IKW-10" value="-hwnd&lt;br&gt;-hInstance&lt;br&gt;...&lt;br&gt;&lt;br&gt;+GUI()&lt;br&gt;+createWindow()&lt;br&gt;+handleEvents()&amp;nbsp;&lt;br&gt;+updateUI()" style="text;html=1;strokeColor=none;fillColor=none;align=left;verticalAlign=top;whiteSpace=wrap;rounded=0;" vertex="1" parent="k0iRf-nJDOvyUt2F7IKW-2">
          <mxGeometry y="20" width="200" height="180" as="geometry" />
        </mxCell>
        <mxCell id="k0iRf-nJDOvyUt2F7IKW-8" value="" style="endArrow=none;html=1;rounded=0;entryX=1.01;entryY=0.328;entryDx=0;entryDy=0;entryPerimeter=0;exitX=-0.005;exitY=0.328;exitDx=0;exitDy=0;exitPerimeter=0;" edge="1" parent="k0iRf-nJDOvyUt2F7IKW-2" source="k0iRf-nJDOvyUt2F7IKW-10" target="k0iRf-nJDOvyUt2F7IKW-10">
          <mxGeometry width="50" height="50" relative="1" as="geometry">
            <mxPoint x="-100" y="190" as="sourcePoint" />
            <mxPoint x="-50" y="140" as="targetPoint" />
          </mxGeometry>
        </mxCell>
        <mxCell id="k0iRf-nJDOvyUt2F7IKW-3" value="Показание данных" style="endArrow=none;html=1;rounded=0;entryX=0;entryY=0.5;entryDx=0;entryDy=0;exitX=1;exitY=0.5;exitDx=0;exitDy=0;verticalAlign=bottom;" edge="1" parent="1" source="k0iRf-nJDOvyUt2F7IKW-1" target="k0iRf-nJDOvyUt2F7IKW-2">
          <mxGeometry width="50" height="50" relative="1" as="geometry">
            <mxPoint x="390" y="280" as="sourcePoint" />
            <mxPoint x="440" y="230" as="targetPoint" />
            <mxPoint as="offset" />
          </mxGeometry>
        </mxCell>
        <mxCell id="k0iRf-nJDOvyUt2F7IKW-4" value="*" style="text;html=1;strokeColor=none;fillColor=none;align=center;verticalAlign=middle;whiteSpace=wrap;rounded=0;fontSize=22;fontStyle=1" vertex="1" parent="1">
          <mxGeometry x="330" y="170" width="60" height="30" as="geometry" />
        </mxCell>
      </root>
    </mxGraphModel>
  </diagram>
</mxfile>
